<?xml version="1.0" encoding="UTF-8"?>
<svg version="1.1" xmlns="http://www.w3.org/2000/svg" width="800" height="916">
<path d="M0 0 C49.51345756 -0.09155373 99.02690656 -0.16203783 148.54043212 -0.20426132 C154.3858416 -0.20926415 160.23125092 -0.21444144 166.07666016 -0.21972656 C167.82223514 -0.22130043 167.82223514 -0.22130043 169.60307427 -0.22290608 C188.44626915 -0.24031171 207.28941523 -0.2718503 226.13258116 -0.30861118 C245.46713857 -0.34601615 264.80167042 -0.36823492 284.13626254 -0.37635398 C296.06692092 -0.38184266 307.99744135 -0.39917881 319.92805727 -0.43166587 C328.10912178 -0.45280824 336.29011496 -0.45920065 344.4712048 -0.45400551 C349.19140938 -0.45144332 353.91137286 -0.45537349 358.63153458 -0.4768219 C362.95600733 -0.49632857 367.2800775 -0.49724338 371.60456903 -0.48359558 C373.16598297 -0.48190953 374.72742232 -0.48694888 376.28878646 -0.49953273 C389.39222381 -0.5989683 398.1679959 1.43075589 407.80078125 10.625 C413.58422293 16.87070611 417.24768806 23.53376935 417.25415033 32.15589112 C417.25992604 33.40447121 417.26570176 34.65305131 417.27165249 35.93946716 C417.2679657 37.32508912 417.2640955 38.7107106 417.26006222 40.0963316 C417.26305837 41.57433002 417.26692844 43.05232688 417.27159455 44.53032097 C417.28191113 48.61081748 417.27971186 52.6912276 417.27553919 56.77173152 C417.27317993 61.2038804 417.28233298 65.63600768 417.29002339 70.06814843 C417.30188904 77.84249599 417.30623543 85.61682005 417.30570221 93.39117622 C417.30491018 104.95195662 417.31544639 116.51270728 417.32811778 128.07347974 C417.35288056 151.12470511 417.36164299 174.1759233 417.36665427 197.22716014 C417.36691544 198.42148255 417.36717662 199.61580496 417.36744571 200.84631896 C417.36770598 202.04299077 417.36796626 203.23966257 417.36823442 204.47259716 C417.37131439 217.72254487 417.37781831 230.97249058 417.3844471 244.2224369 C417.40409719 284.22779715 417.42050038 324.23315524 417.42332363 364.23852062 C417.42341769 365.51861248 417.42351175 366.79870434 417.42360866 368.11758686 C417.42398715 373.30544059 417.42435115 378.49329431 417.42471164 383.68114803 C417.42498336 387.586016 417.42526004 391.49088398 417.42553711 395.39575195 C417.42562513 396.68606886 417.42571315 397.97638577 417.42580384 399.30580319 C417.42870974 439.85468775 417.45080828 480.40352466 417.48706055 520.95239258 C417.52776684 566.48458631 417.55148205 612.01674758 417.55178314 657.54896051 C417.55187997 662.4021351 417.5520467 667.25530968 417.55226326 672.10848427 C417.55230737 673.3035027 417.55235149 674.49852114 417.55239694 675.72975225 C417.55351786 694.9797185 417.57094213 714.22963709 417.59408258 733.47958798 C417.61690029 752.8195512 417.62116639 772.15944989 417.60653328 791.49942162 C417.59836844 802.99515756 417.60412009 814.49069054 417.62971413 825.98640196 C417.64542643 833.66172197 417.64302883 841.33689737 417.6258074 849.0122138 C417.61650467 853.38782934 417.61513613 857.76305302 417.63577347 862.13863852 C417.65439554 866.1207481 417.64992705 870.10214416 417.62718253 874.08422623 C417.62303164 875.51442384 417.62722506 876.94467681 417.64088022 878.37481525 C417.74605145 890.17270377 415.0892283 898.44906142 407.03515625 907.17578125 C401.47126905 912.16298916 395.01014079 916.12657522 387.42978382 916.12304783 C386.48677727 916.12503888 385.54377071 916.12702993 384.5721882 916.12908131 C383.53426163 916.12616847 382.49633506 916.12325563 381.42695618 916.12025452 C379.77539789 916.12153615 379.77539789 916.12153615 378.09047478 916.12284368 C374.38232172 916.12449747 370.67421339 916.11897873 366.96606445 916.11352539 C364.3154083 916.11324347 361.66475493 916.11335726 359.01409912 916.1139679 C353.29776352 916.11449272 347.58143932 916.11135023 341.86510658 916.10573006 C333.60020875 916.09760947 325.33531643 916.09499926 317.07041504 916.09374207 C303.66176771 916.09155243 290.25312645 916.08489473 276.84448242 916.07543945 C263.81779002 916.06626306 250.79109927 916.05918334 237.7644043 916.05493164 C236.96169066 916.05466892 236.15897702 916.05440619 235.33193872 916.05413551 C231.30503547 916.05283049 227.2781322 916.05156678 223.25122893 916.05032361 C189.83414821 916.03995374 156.41707485 916.02233781 123 916 C122.70756145 915.41474318 122.4151229 914.82948636 122.11382258 914.22649449 C104.74657392 879.46957499 87.37721083 844.71371288 70.00513545 809.95920558 C67.91502945 805.777743 65.82494095 801.59627167 63.73486328 797.41479492 C63.31880032 796.58240668 62.90273735 795.75001845 62.47406642 794.89240632 C55.75451377 781.44896045 49.03637668 768.00480765 42.31877084 754.56038889 C35.41584131 740.74514833 28.51137169 726.93067827 21.60549867 713.11690885 C17.35096898 704.60648354 13.09761381 696.0954734 8.84580295 687.58368943 C5.92233408 681.73142867 2.99735742 675.87992306 0.071243 670.02898463 C-1.61198231 666.66316877 -3.29458813 663.2970474 -4.97538757 659.93001938 C-11.48777055 646.88523386 -18.05342287 633.87838023 -24.88675499 620.99826717 C-27.70034781 615.69170118 -30.40729199 610.33327422 -33.09228516 604.96069336 C-33.62043823 603.90774582 -34.14859131 602.85479828 -34.69274902 601.76994324 C-36.39357307 598.37760063 -38.09152505 594.98383202 -39.7890625 591.58984375 C-40.68223031 589.80591275 -41.57539908 588.02198222 -42.46866453 586.23810011 C-45.25624 580.67099575 -48.04161387 575.10279381 -50.82568359 569.53393555 C-53.69308036 563.79853535 -56.56498846 558.06540927 -59.4388901 552.3332662 C-61.92174638 547.38059903 -64.40154067 542.42640695 -66.87892377 537.47099978 C-68.35245089 534.52369081 -69.82757739 531.57720199 -71.30507278 528.63187981 C-72.94104709 525.36965947 -74.57200029 522.10497785 -76.20166016 518.83959961 C-76.69088959 517.86676025 -77.18011902 516.8939209 -77.68417358 515.89160156 C-78.1240863 515.00758163 -78.56399902 514.12356171 -79.01724243 513.2127533 C-79.40246881 512.4428453 -79.7876952 511.6729373 -80.18459511 510.87969875 C-81 509 -81 509 -81 507 C-80.19183838 506.91024902 -79.38367676 506.82049805 -78.55102539 506.72802734 C-6.82280674 498.58412355 59.86717825 465.51400511 105.76953125 408.59765625 C108.10732863 405.65886272 110.39847028 402.68579853 112.68115234 399.70410156 C113.91800065 398.10595252 115.18649796 396.53243973 116.45703125 394.9609375 C164.0674739 335.42865541 184.7505088 253.69619906 176.6875 178.5078125 C170.59782105 127.6336196 151.00005337 79.3256433 110.2109375 46.56298828 C78.12020655 21.49637211 39.80009025 8.00001587 0 1 C0 0.67 0 0.34 0 0 Z " fill="#00263D" transform="translate(383,0)"/>
<path d="M0 0 C21.22142197 -0.04707008 42.44283513 -0.08215805 63.66429901 -0.10362434 C73.52149722 -0.11386384 83.37866268 -0.12778082 93.23583984 -0.15087891 C101.84411504 -0.17104056 110.45236649 -0.18376937 119.06066465 -0.18817699 C123.60344611 -0.19074657 128.14615973 -0.19662556 132.68891907 -0.21146011 C251.96355898 -0.58493655 251.96355898 -0.58493655 291.1875 35.6875 C312.94849415 58.57717642 317.44231751 90.73375476 317.3125 120.9375 C317.31034485 121.84040771 317.3081897 122.74331543 317.30596924 123.67358398 C317.08056452 182.6332038 296.71765183 235.33498221 256 278 C255.09894531 278.98033203 255.09894531 278.98033203 254.1796875 279.98046875 C219.12802327 317.05773166 164.60107371 334.16131322 115 337 C109.36682555 337.13227509 103.73671449 337.12715011 98.10229492 337.11352539 C96.44522605 337.11324266 94.78815706 337.11340294 93.13108826 337.1139679 C88.67331136 337.1142525 84.21556186 337.10841056 79.75779128 337.10139394 C75.08399711 337.095104 70.41020217 337.09455217 65.73640442 337.09336853 C56.90408911 337.09027174 48.07178632 337.08208081 39.2394765 337.07201904 C29.17649033 337.06080635 19.11350354 337.05533451 9.05051267 337.05032361 C-11.63299851 337.03989667 -32.31649846 337.0223295 -53 337 C-52.42872806 329.91917021 -51.61994196 322.93302323 -50.4866333 315.92111206 C-50.33569269 314.96839389 -50.18475208 314.01567572 -50.02923751 313.0340873 C-49.52719299 309.87095757 -49.01995288 306.70868429 -48.51269531 303.54638672 C-48.14909578 301.26247558 -47.78581821 298.97851316 -47.4228363 296.69450378 C-46.43568553 290.48897155 -45.44399564 284.28417232 -44.45148182 278.07949591 C-43.50651628 272.16765788 -42.56492844 266.25528224 -41.62327167 260.3429165 C-39.74377902 248.5429251 -37.86095008 236.74346855 -35.97607422 224.94433594 C-34.17829874 213.69040298 -32.38218024 202.43620774 -30.58837891 191.18164062 C-30.47939032 190.49783781 -30.37040173 189.81403499 -30.25811046 189.10951087 C-29.81902439 186.35461659 -29.37994884 183.59972064 -28.94088694 180.84482251 C-19.33245042 120.55704295 -9.69418354 60.27405584 0 0 Z " fill="#00263D" transform="translate(129,91)"/>
<path d="M0 0 C41.25 0 82.5 0 125 0 C136.53942154 21.92490092 136.53942154 21.92490092 141.6171875 32.45117188 C141.98424805 33.21099365 142.35130859 33.97081543 142.72949219 34.75366211 C143.10750977 35.53620361 143.48552734 36.31874512 143.875 37.125 C144.69235739 38.81071708 145.51007538 40.49625936 146.328125 42.18164062 C148.03075839 45.6898803 149.73208621 49.19874861 151.43261719 52.70800781 C155.19055292 60.45877254 158.97066963 68.19871025 162.74981689 75.93914795 C164.84449275 80.22984339 166.93789285 84.52116107 169.03125 88.8125 C169.44468658 89.66000824 169.85812317 90.50751648 170.28408813 91.38070679 C174.69274138 100.4188397 179.09653262 109.45933967 183.5 118.5 C189.97509318 131.79365526 196.45416829 145.08536065 202.9375 158.375 C203.55841019 159.64775787 203.55841019 159.64775787 204.19186401 160.94622803 C207.12776523 166.96422233 210.06386024 172.98212208 213 179 C216.35430026 185.87493483 219.70851389 192.74991191 223.0625 199.625 C223.47652069 200.47366638 223.89054138 201.32233276 224.31710815 202.19671631 C230.77541091 215.43547405 237.22823397 228.67689424 243.67852783 241.91955566 C252.27309572 259.56415061 260.87789285 277.20374925 269.48388672 294.84277344 C272.82498093 301.69082604 276.16555148 308.53913407 279.50610352 315.38745117 C281.15885325 318.77567492 282.81168892 322.16385672 284.46459961 325.55200195 C288.36409815 333.54534989 292.26302244 341.5389766 296.16015625 349.53347778 C297.99751955 353.3025276 299.83517438 357.07143525 301.67285156 360.84033203 C302.54734625 362.63404354 303.42169868 364.42782442 304.29589844 366.22167969 C305.50940332 368.71176535 306.72340204 371.20160971 307.9375 373.69140625 C308.29078369 374.41667007 308.64406738 375.1419339 309.00805664 375.88917542 C309.34442139 376.57873825 309.68078613 377.26830109 310.02734375 377.97875977 C310.34944824 378.6400589 310.67155273 379.30135803 311.00341797 379.98269653 C311.70452276 381.40188841 312.41826897 382.81487056 313.14111328 384.22311401 C313.50833496 384.93960114 313.87555664 385.65608826 314.25390625 386.39428711 C314.58849854 387.03861191 314.92309082 387.68293671 315.26782227 388.3467865 C316 390 316 390 316 392 C191.92 392 67.84 392 -60 392 C-59.40221751 384.22882761 -58.79796626 376.73271424 -57.57843018 369.0819397 C-57.43724066 368.16984478 -57.29605114 367.25774986 -57.15058315 366.31801569 C-56.68227119 363.3006072 -56.20687866 360.28436033 -55.73144531 357.26806641 C-55.39018842 355.07895379 -55.04937518 352.88977197 -54.70896721 350.70052719 C-53.78219279 344.74843868 -52.84924295 338.7973327 -51.91522074 332.84637785 C-50.92157977 326.5083963 -49.93375586 320.16950808 -48.94528198 313.83071899 C-47.25953452 303.02552142 -45.57029886 292.22087437 -43.878479 281.41662598 C-41.47213761 266.04911706 -39.07133551 250.68074688 -36.67222238 235.31210804 C-35.58574327 228.35216915 -34.49903257 221.39226642 -33.41226196 214.43237305 C-33.30511794 213.74619197 -33.19797392 213.0600109 -33.08758311 212.35303646 C-31.47055173 201.99732696 -29.85239885 191.64179311 -28.23348999 181.28637695 C-28.12795705 180.611324 -28.02242411 179.93627104 -27.9136932 179.24076194 C-27.49111228 176.53768121 -27.06852835 173.83460096 -26.64594356 171.13152084 C-22.35523422 143.68563309 -18.07314146 116.23842048 -13.8046875 88.7890625 C-13.62277036 87.61923238 -13.62277036 87.61923238 -13.43717813 86.42576933 C-11.66572799 75.03395875 -9.89543986 63.64196764 -8.125 52.25 C-5.44375 35.0075 -2.7625 17.765 0 0 Z " fill="#00263D" transform="translate(60,524)"/>
</svg>
